<svg xmlns="http://www.w3.org/2000/svg" width="236" height="25" viewBox="0 0 236 25" fill="none" role="img" aria-label="Things I do outside of work: Gaming, Sports, Drawing, Music, Reading, Writing, Anime, Content Creation, Investing, Coding, Travelling, Driving">
<defs>
<symbol id="em0" viewBox="0 0 36 36"><path fill="#31373D" d="M2.13 14.856l-.004-.002S.075 27.271.075 29.061c0 1.824 1.343 3.302 3 3.302.68 0 1.3-.258 1.803-.678l10.166-8.938L2.13 14.856zm31.69 0l.004-.002s2.051 12.417 2.051 14.207c0 1.824-1.343 3.302-3 3.302-.68 0-1.3-.258-1.803-.678l-10.166-8.938 12.914-7.891z"/><g fill="#14171A"><circle cx="25.975" cy="15.551" r="8.5"/><circle cx="9.975" cy="15.551" r="8.5"/><path d="M9.975 7.051h16v16.87h-16z"/></g><circle fill="#14171A" cx="13.075" cy="23.301" r="5"/><circle fill="#14171A" cx="22.875" cy="23.301" r="5"/><circle fill="#67757F" cx="22.875" cy="23.301" r="3"/><circle fill="#67757F" cx="13.075" cy="23.301" r="3"/><circle fill="#FFCC4D" cx="25.735" cy="11.133" r="1.603"/><circle fill="#77B255" cx="25.735" cy="17.607" r="1.603"/><circle fill="#50A5E6" cx="22.498" cy="14.37" r="1.603"/><circle fill="#DD2E44" cx="28.972" cy="14.37" r="1.603"/><path d="M11.148 12.514v-2.168c0-.279-.226-.505-.505-.505H9.085c-.279 0-.505.226-.505.505v2.168l1.284 1.285 1.284-1.285zm-2.569 3.63v2.168c0 .279.226.505.505.505h1.558c.279 0 .505-.226.505-.505v-2.168l-1.284-1.285-1.284 1.285zm5.269-3.1H11.68l-1.285 1.285 1.285 1.285h2.168c.279 0 .505-.227.505-.505V13.55c0-.279-.226-.506-.505-.506zm-5.799 0H5.88c-.279 0-.505.227-.505.505v1.558c0 .279.226.505.505.505h2.168l1.285-1.285-1.284-1.283z" fill="#8899A6"/></symbol>
<symbol id="em1" viewBox="0 0 36 36"><circle fill="#F5F8FA" cx="18" cy="18" r="18"/><path d="M18 11c-.552 0-1-.448-1-1V3c0-.552.448-1 1-1s1 .448 1 1v7c0 .552-.448 1-1 1zm-6.583 4.5c-.1 0-.202-.015-.302-.047l-8.041-2.542c-.527-.167-.819-.728-.652-1.255.166-.527.73-.818 1.255-.652l8.042 2.542c.527.167.819.729.652 1.255-.136.426-.53.699-.954.699zm13.625-.291c-.434 0-.833-.285-.96-.722-.154-.531.151-1.085.682-1.239l6.75-1.958c.531-.153 1.085.153 1.238.682.154.531-.151 1.085-.682 1.239l-6.75 1.958c-.092.027-.186.04-.278.04zm2.001 14.958c-.306 0-.606-.14-.803-.403l-5.459-7.333c-.33-.442-.238-1.069.205-1.399.442-.331 1.069-.238 1.399.205l5.459 7.333c.33.442.238 1.069-.205 1.399-.179.134-.389.198-.596.198zm-18.294-.083c-.197 0-.395-.058-.57-.179-.454-.316-.565-.938-.25-1.392l5.125-7.375c.315-.454.938-.566 1.392-.251.454.315.565.939.25 1.392l-5.125 7.375c-.194.281-.506.43-.822.43zM3.5 27.062c-.44 0-.844-.293-.965-.738L.347 18.262c-.145-.533.17-1.082.704-1.227.535-.141 1.083.171 1.227.704l2.188 8.062c.145.533-.17 1.082-.704 1.226-.088.025-.176.035-.262.035zM22 34h-9c-.552 0-1-.447-1-1s.448-1 1-1h9c.553 0 1 .447 1 1s-.447 1-1 1zm10.126-6.875c-.079 0-.16-.009-.24-.029-.536-.132-.864-.674-.731-1.21l2.125-8.625c.133-.536.679-.862 1.21-.732.536.132.864.674.731 1.211l-2.125 8.625c-.113.455-.521.76-.97.76zM30.312 7.688c-.17 0-.342-.043-.5-.134L22.25 3.179c-.478-.277-.642-.888-.364-1.367.275-.478.886-.643 1.366-.365l7.562 4.375c.478.277.642.888.364 1.367-.185.32-.521.499-.866.499zm-24.811 0c-.312 0-.618-.145-.813-.417-.322-.45-.22-1.074.229-1.396l6.188-4.438c.449-.322 1.074-.219 1.396.229.322.449.219 1.074-.229 1.396L6.083 7.5c-.177.126-.38.188-.582.188z" fill="#CCD6DD"/><path d="M25.493 13.516l-7.208-5.083c-.348-.245-.814-.243-1.161.006l-7.167 5.167c-.343.248-.494.684-.375 1.091l2.5 8.583c.124.426.515.72.96.72H22c.43 0 .81-.274.948-.681l2.917-8.667c.141-.419-.011-.881-.372-1.136zM1.292 19.542c.058 0 .117-.005.175-.016.294-.052.55-.233.697-.494l3.375-6c.051-.091.087-.188.108-.291L6.98 6.2c.06-.294-.016-.6-.206-.832C6.584 5.135 6.3 5 6 5h-.428C2.145 8.277 0 12.884 0 18c0 .266.028.525.04.788l.602.514c.182.156.413.24.65.24zm9.325-16.547c.106.219.313.373.553.412l6.375 1.042c.04.006.081.01.121.01.04 0 .081-.003.122-.01l6.084-1c.2-.033.38-.146.495-.314.116-.168.158-.375.118-.575l-.292-1.443C22.26.407 20.18 0 18 0c-2.425 0-4.734.486-6.845 1.356l-.521.95c-.117.213-.123.47-.017.689zm20.517 2.724l-1.504-.095c-.228-.013-.455.076-.609.249-.152.173-.218.402-.175.63l1.167 6.198c.017.086.048.148.093.224 1.492 2.504 3.152 5.301 3.381 5.782.024.084.062.079.114.151.14.195.372.142.612.142h.007c.198 0 .323.094 1.768-.753.001-.083.012-.164.012-.247 0-4.753-1.856-9.064-4.866-12.281zM14.541 33.376c.011-.199-.058-.395-.191-.544l-4.5-5c-.06-.066-.131-.122-.211-.163-5.885-3.069-5.994-3.105-6.066-3.13-.078-.025-.161-.039-.242-.039-.537 0-.695.065-1.185 2.024 2.236 4.149 6.053 7.316 10.644 8.703l1.5-1.333c.149-.132.239-.319.251-.518zm17.833-8.567c-.189-.08-.405-.078-.592.005l-6.083 2.667c-.106.046-.2.116-.274.205l-4.25 5.083c-.129.154-.19.352-.172.552.02.2.117.384.272.51.683.559 1.261 1.03 1.767 1.44 4.437-1.294 8.154-4.248 10.454-8.146l-.712-1.889c-.072-.193-.221-.347-.41-.427z" fill="#31373D"/></symbol>
<symbol id="em2" viewBox="0 0 36 36"><path fill="#D99E82" d="M18 3.143c-9.941 0-18 6.908-18 15.428 0 1.066.126 2.107.367 3.112C2.146 24.744 3.377 22.812 9 20c5.727-2.864 0 4-2 8-.615 1.23-.282 2.271.56 3.124C10.506 32.928 14.104 34 18 34c9.941 0 18-6.907 18-15.429 0-8.52-8.059-15.428-18-15.428zm2.849 24.447c-.395 1.346-2.46 1.924-4.613 1.291-2.153-.632-3.578-2.234-3.183-3.581.395-1.346 2.46-1.924 4.613-1.29 2.153.631 3.578 2.233 3.183 3.58z"/><circle fill="#5C913B" cx="10" cy="11" r="3"/><circle fill="#269" cx="20" cy="9" r="3"/><circle fill="#DD2E44" cx="29" cy="15" r="3"/><circle fill="#FFCC4D" cx="28" cy="24" r="3"/></symbol>
<symbol id="em3" viewBox="0 0 36 36"><path fill="#5DADEC" d="M34.209.206L11.791 2.793C10.806 2.907 10 3.811 10 4.803v18.782C9.09 23.214 8.075 23 7 23c-3.865 0-7 2.685-7 6 0 3.314 3.135 6 7 6s7-2.686 7-6V10.539l18-2.077v13.124c-.91-.372-1.925-.586-3-.586-3.865 0-7 2.685-7 6 0 3.314 3.135 6 7 6s7-2.686 7-6V1.803c0-.992-.806-1.71-1.791-1.597z"/></symbol>
<symbol id="em4" viewBox="0 0 36 36"><path fill="#553788" d="M15 31c0 2.209-.791 4-3 4H5c-4 0-4-14 0-14h7c2.209 0 3 1.791 3 4v6z"/><path fill="#9266CC" d="M34 33h-1V23h1c.553 0 1-.447 1-1s-.447-1-1-1H10c-4 0-4 14 0 14h24c.553 0 1-.447 1-1s-.447-1-1-1z"/><path fill="#CCD6DD" d="M34.172 33H11c-2 0-2-10 0-10h23.172c1.104 0 1.104 10 0 10z"/><path fill="#99AAB5" d="M11.5 25h23.35c-.135-1.175-.36-2-.678-2H11c-1.651 0-1.938 6.808-.863 9.188C9.745 29.229 10.199 25 11.5 25z"/><path fill="#269" d="M12 8c0 2.209-1.791 4-4 4H4C0 12 0 1 4 1h4c2.209 0 4 1.791 4 4v3z"/><path fill="#55ACEE" d="M31 10h-1V3h1c.553 0 1-.447 1-1s-.447-1-1-1H7C3 1 3 12 7 12h24c.553 0 1-.447 1-1s-.447-1-1-1z"/><path fill="#CCD6DD" d="M31.172 10H8c-2 0-2-7 0-7h23.172c1.104 0 1.104 7 0 7z"/><path fill="#99AAB5" d="M8 5h23.925c-.114-1.125-.364-2-.753-2H8C6.807 3 6.331 5.489 6.562 7.5 6.718 6.142 7.193 5 8 5z"/><path fill="#F4900C" d="M20 17c0 2.209-1.791 4-4 4H6c-4 0-4-9 0-9h10c2.209 0 4 1.791 4 4v1z"/><path fill="#FFAC33" d="M35 19h-1v-5h1c.553 0 1-.447 1-1s-.447-1-1-1H15c-4 0-4 9 0 9h20c.553 0 1-.447 1-1s-.447-1-1-1z"/><path fill="#CCD6DD" d="M35.172 19H16c-2 0-2-5 0-5h19.172c1.104 0 1.104 5 0 5z"/><path fill="#99AAB5" d="M16 16h19.984c-.065-1.062-.334-2-.812-2H16c-1.274 0-1.733 2.027-1.383 3.5.198-.839.657-1.5 1.383-1.5z"/></symbol>
<symbol id="em5" viewBox="0 0 36 36"><path fill="#EF9645" d="M6.203 21.641c-.078.922.321 1.198.946 1.636.618.433 4.383-2.867 5.614-3.369 1.231-.502 12.787-2.949 12.286-5.183-.501-2.234-3.993-2.564-6.683-2.108-2.69.456-7.838 2.822-9.342 4.099-1.504 1.276-2.821 4.925-2.821 4.925zm8.622 1.497s-3.557 1.155-3.557 4.155.866 4.692 1.276 5.513c.411.82 1.688 1.616 3.455.851 2.052-.889-.491-6.004 6-3.656 2.974 1.075 6.059 2.528 9.059 1.528C33.904 30.58 35 27 35 25c0-4.094-3-3-4-2s-9 3-10 3-6.175-2.862-6.175-2.862z"/><path fill="#F9CA55" d="M19.312 28.188s-.12-1.316-1.375-1.469c-1.031-.125-2.656.219-3.5 1.906-.844 1.688-2.344 1.406-2.281 2.812.062 1.406.5 2.5 1.406 2.781.907.282 2.188-.218 2.344-1.718.156-1.5.344-2.875 1.312-3.469.97-.593 2.094-.843 2.094-.843z"/><path fill="#EF9645" d="M18 26s-1-1-3-1-6.664 2.133-5.25 6.375c1 3 3.844 1.594 4.25-1.375.407-2.973 4-4 4-4z"/><path fill="#F9CA55" d="M17 26s-1-1-3-1-4.885 1.53-5 6c-.094 3.656 4.031 2 4-1-.031-3 4-4 4-4z"/><path fill="#EF9645" d="M5 27c0 3.297.457 5.286 2.428 4.947 3.269-.562 2.028-4.614 4.889-5.754 2.077-.827 5.101-.63 8.02 1.103C22.26 28.438 21 24 19 23s-8 0-9 0-5 4-5 4z"/><path fill="#F9CA55" d="M4.842 27.174C3.251 29.839 4.219 32.594 7 32c2.691-.574 1.343-4.07 4-6 1.489-1.082 4.698-1.445 6.698-.445S20 24 18 23s-8.54-.025-9.538.037c-1.909.119-3.62 4.137-3.62 4.137z"/><path fill="#3B88C3" d="M9.418 29.114c-.679.778-1.86.859-2.639.18l-.196-.171c-.779-.679-.859-1.859-.18-2.638L28.926.668c.679-.778 1.86-.859 2.639-.18l.195.171c.779.679.859 1.86.181 2.638L9.418 29.114z"/><path fill="#3B88C3" d="M10.49 27.886c-2.36 2.705-8.313 8.009-9.067 7.352-.753-.657 3.693-7.275 6.053-9.981 2.36-2.706 1.661-.542 2.493.185.832.726 2.881-.26.521 2.444z"/><path fill="#EF9645" d="M6.672 25.026c0 1 2.421 1.915 3.421.915s3.341-2.228 6.419-.941C23.716 28.01 21 24 18 23s-8 0-9 0-2.328 2.026-2.328 2.026z"/><path fill="#FFDC5D" d="M6.195 22.043c-.358-1.113 2.188-7.279 3.341-8.234 1.452-1.202 7.069-3.063 9.069-3.063S35 18 35 23s-2 5.625-4.875 6.406c-2.299.625-7.115.242-9.219-1.719C19.062 25.969 17.781 24.781 16 24c-3.302-1.448-5.503.424-6.503 1.424-2 2-5.768-.159-2.625-3.58C9.121 19.395 11.102 18.632 13 18c6-2 10-2 8-4-.707-.707-1.092.346-2.076.525-1.98.36-3.556.602-6.165 1.472-.902.3-5.172 3.023-6.564 6.046z"/><path fill="#EF9645" d="M13.196 16.275c1.064-.388 5.702-1.232 8.115-2.068 1.949-.676 3.659.636-.04 2.028-3.57 1.343-7.279 1.233-9.984 2.307-1.023.406-1.91-.875 1.909-2.267z"/><path fill="#3B88C3" d="M22.487 8.023s-5.928 6.795-8.446 9.661c2.254-.926 4.271-.75 6.198-1.884 1.927-1.133 2.806-2.342 5.73-5.695 1.086-1.244-3.482-2.082-3.482-2.082z"/></symbol>
<symbol id="em6" viewBox="0 0 36 36"><path fill="#F4900C" d="M35 19c0-2.062-.367-4.039-1.04-5.868-.46 5.389-3.333 8.157-6.335 6.868-2.812-1.208-.917-5.917-.777-8.164.236-3.809-.012-8.169-6.931-11.794 2.875 5.5.333 8.917-2.333 9.125-2.958.231-5.667-2.542-4.667-7.042-3.238 2.386-3.332 6.402-2.333 9 1.042 2.708-.042 4.958-2.583 5.208-2.84.28-4.418-3.041-2.963-8.333C2.52 10.965 1 14.805 1 19c0 9.389 7.611 17 17 17s17-7.611 17-17z"/><path fill="#FFCC4D" d="M28.394 23.999c.148 3.084-2.561 4.293-4.019 3.709-2.106-.843-1.541-2.291-2.083-5.291s-2.625-5.083-5.708-6c2.25 6.333-1.247 8.667-3.08 9.084-1.872.426-3.753-.001-3.968-4.007C7.352 23.668 6 26.676 6 30c0 .368.023.73.055 1.09C9.125 34.124 13.342 36 18 36s8.875-1.876 11.945-4.91c.032-.36.055-.722.055-1.09 0-2.187-.584-4.236-1.606-6.001z"/></symbol>
<symbol id="em7" viewBox="0 0 36 36"><path fill="#3F7123" d="M35.845 32c0 2.2-1.8 4-4 4h-26c-2.2 0-4-1.8-4-4V19c0-2.2 1.8-4 4-4h26c2.2 0 4 1.8 4 4v13z"/><path fill="#3F7123" d="M1.845 15h34v6h-34z"/><path fill="#CCD6DD" d="M1.845 15h34v7h-34z"/><path fill="#292F33" d="M1.845 15h4l-4 7v-7zm11 0l-4 7h7l4-7h-7zm14 0l-4 7h7l4-7h-7z"/><path fill="#CCD6DD" d="M.155 8.207L33.148 0l1.69 6.792L1.845 15z"/><path fill="#292F33" d="M.155 8.207l5.572 5.827L1.845 15 .155 8.207zm19.158 2.448l-5.572-5.828-6.793 1.69 5.572 5.828 6.793-1.69zm13.586-3.38l-5.572-5.828-6.793 1.69 5.572 5.827 6.793-1.689z"/></symbol>
<symbol id="em8" viewBox="0 0 36 36"><path fill="#CCD6DD" d="M31 2H5C3.343 2 2 3.343 2 5v26c0 1.657 1.343 3 3 3h26c1.657 0 3-1.343 3-3V5c0-1.657-1.343-3-3-3z"/><path fill="#E1E8ED" d="M31 1H5C2.791 1 1 2.791 1 5v26c0 2.209 1.791 4 4 4h26c2.209 0 4-1.791 4-4V5c0-2.209-1.791-4-4-4zm0 2c1.103 0 2 .897 2 2v4h-6V3h4zm-4 16h6v6h-6v-6zm0-2v-6h6v6h-6zM25 3v6h-6V3h6zm-6 8h6v6h-6v-6zm0 8h6v6h-6v-6zM17 3v6h-6V3h6zm-6 8h6v6h-6v-6zm0 8h6v6h-6v-6zM3 5c0-1.103.897-2 2-2h4v6H3V5zm0 6h6v6H3v-6zm0 8h6v6H3v-6zm2 14c-1.103 0-2-.897-2-2v-4h6v6H5zm6 0v-6h6v6h-6zm8 0v-6h6v6h-6zm12 0h-4v-6h6v4c0 1.103-.897 2-2 2z"/><path fill="#DD2E44" d="M4.998 33c-.32 0-.645-.076-.946-.239-.973-.523-1.336-1.736-.813-2.709l7-13c.299-.557.845-.939 1.47-1.031.626-.092 1.258.118 1.705.565l6.076 6.076 9.738-18.59c.512-.978 1.721-1.357 2.699-.843.979.512 1.356 1.721.844 2.7l-11 21c-.295.564-.841.953-1.47 1.05-.627.091-1.266-.113-1.716-.563l-6.1-6.099-5.724 10.631C6.4 32.619 5.71 33 4.998 33z"/></symbol>
<symbol id="em9" viewBox="0 0 36 36"><path fill="#CCD6DD" d="M34 29.096c-.417-.963-.896-2.008-2-2.008h-1c1.104 0 2-.899 2-2.008V8.008C33 6.899 32.104 6 31 6H5c-1.104 0-2 .899-2 2.008V25.08c0 1.109.896 2.008 2 2.008H4c-1.104 0-1.667 1.004-2 2.008l-2 4.895C0 35.101.896 36 2 36h32c1.104 0 2-.899 2-2.008l-2-4.896z"/><path fill="#9AAAB4" d="M.008 34.075l.006.057.17.692C.5 35.516 1.192 36 2 36h32c1.076 0 1.947-.855 1.992-1.925H.008z"/><path fill="#5DADEC" d="M31 24.075c0 .555-.447 1.004-1 1.004H6c-.552 0-1-.449-1-1.004V9.013c0-.555.448-1.004 1-1.004h24c.553 0 1 .45 1 1.004v15.062z"/><path fill="#AEBBC1" d="M32.906 31.042l-.76-2.175c-.239-.46-.635-.837-1.188-.837H5.11c-.552 0-.906.408-1.156 1.036l-.688 1.977c-.219.596.448 1.004 1 1.004h7.578s.937-.047 1.103-.608c.192-.648.415-1.624.463-1.796.074-.264.388-.531.856-.531h8.578c.5 0 .746.253.811.566.042.204.312 1.141.438 1.782.111.571 1.221.586 1.221.586h6.594c.551 0 1.217-.471.998-1.004z"/><path fill="#9AAAB4" d="M22.375 33.113h-7.781c-.375 0-.538-.343-.484-.675.054-.331.359-1.793.383-1.963.023-.171.274-.375.524-.375h7.015c.297 0 .49.163.55.489.059.327.302 1.641.321 1.941.019.301-.169.583-.528.583z"/></symbol>
<symbol id="em10" viewBox="0 0 36 36"><ellipse fill="#3B88C3" cx="18" cy="30.54" rx="18" ry="5.36"/><path fill="#88C9F9" d="M33.813 28.538c0 1.616-2.5 2.587-14.482 2.587-10.925 0-13.612-.971-13.612-2.587s5.683-2.926 13.612-2.926 14.482 1.31 14.482 2.926z"/><path fill="#F4900C" d="M7 28.25c0-1 1-5 11-5 12 0 15 4 15 5s0 2-14 2c-12 0-12-1-12-2z"/><path fill="#66757F" d="M20.62 27.667c-.15.692-.835 1.133-1.527.982-.693-.15-1.133-.834-.983-1.527l5.083-25.985c.15-.693.834-1.132 1.527-.982.691.15 1.133.834.981 1.527L20.62 27.667z"/><path fill="#DD2E44" d="M24.358 1.827C16.736.173 9.501 3.7 8.198 9.705c0 0-.363 1.672.474 1.854.836.182 2.872-1.128 2.872-1.128l20.908 4.538s1.309 2.036 2.146 2.218c.837.182 1.199-1.491 1.199-1.491C37.101 9.69 31.979 3.481 24.358 1.827z"/><path fill="#FFE8B6" d="M24.358 1.827C18.584.574 12.847 4.426 11.544 10.43c0 0-.363 1.673 1.31 2.036 1.673.364 4.545-.765 4.545-.765l9.199 1.997s2.146 2.217 3.819 2.581c1.673.362 2.035-1.311 2.035-1.311 1.303-6.004-2.321-11.888-8.094-13.141z"/><path fill="#DD2E44" d="M24.358 1.827c-3.003-.651-5.657 3.87-6.96 9.874 0 0 2.146 2.218 3.818 2.58l.837.183c1.673.362 4.544-.766 4.544-.766 1.304-6.004.764-11.219-2.239-11.871z"/><path fill="#FFAC33" d="M15.844 27.948c.469-.427 1.75-.326 2.5-.602s1.219-.627 1.844-.376.812.627 1.406.678 1.031.402.781.678-2.219.376-3.531.376-3.579-.226-3-.754z"/></symbol>
<symbol id="em11" viewBox="0 0 36 36"><path fill="#DD2E44" d="M13 32h20s3 0 3-4c0-2 0-6-1-7s-8-7-11-7h-6c-3 0-10 7-10 7l-4 1s-3 1-3 3v3s-1 .338-1 1.957C0 32 2 32 2 32h11z"/><path fill="#BBDDF5" d="M20 16h-2c-2 0-8 6-8 6s4.997-.263 10-.519V16zm10 3c-1-1-5-3-7-3h-1v5.379c4.011-.204 7.582-.379 8-.379 1 0 1-1 0-2z"/><circle fill="#292F33" cx="10" cy="31" r="4"/><circle fill="#CCD6DD" cx="10" cy="31" r="2"/><circle fill="#292F33" cx="27" cy="31" r="4"/><circle fill="#CCD6DD" cx="27" cy="31" r="2"/></symbol>
<clipPath id="ewin"><rect x="0" y="0.0" width="26" height="26"/></clipPath>
<clipPath id="t0"><rect x="32" y="0" width="0" height="25"><animate attributeName="width" values="0;0;12;24;36;48;60;72;72;60;48;36;24;12;0;0" keyTimes="0;0;0.00277778;0.00555556;0.00833333;0.0111111;0.0138889;0.0166667;0.0516667;0.0541667;0.0566667;0.0591667;0.0616667;0.0641667;0.0666667;1" calcMode="discrete" dur="36.0s" repeatCount="indefinite"/></rect></clipPath>
<clipPath id="t1"><rect x="32" y="0" width="0" height="25"><animate attributeName="width" values="0;0;12;24;36;48;60;72;72;60;48;36;24;12;0;0" keyTimes="0;0.0833333;0.0861111;0.0888889;0.0916667;0.0944444;0.0972222;0.1;0.135;0.1375;0.14;0.1425;0.145;0.1475;0.15;1" calcMode="discrete" dur="36.0s" repeatCount="indefinite"/></rect></clipPath>
<clipPath id="t2"><rect x="32" y="0" width="0" height="25"><animate attributeName="width" values="0;0;12;24;36;48;60;72;84;84;72;60;48;36;24;12;0;0" keyTimes="0;0.166667;0.169048;0.171429;0.17381;0.17619;0.178571;0.180952;0.183333;0.218333;0.220476;0.222619;0.224762;0.226905;0.229048;0.23119;0.233333;1" calcMode="discrete" dur="36.0s" repeatCount="indefinite"/></rect></clipPath>
<clipPath id="t3"><rect x="32" y="0" width="0" height="25"><animate attributeName="width" values="0;0;12;24;36;48;60;60;48;36;24;12;0;0" keyTimes="0;0.25;0.253333;0.256667;0.26;0.263333;0.266667;0.301667;0.304667;0.307667;0.310667;0.313667;0.316667;1" calcMode="discrete" dur="36.0s" repeatCount="indefinite"/></rect></clipPath>
<clipPath id="t4"><rect x="32" y="0" width="0" height="25"><animate attributeName="width" values="0;0;12;24;36;48;60;72;84;84;72;60;48;36;24;12;0;0" keyTimes="0;0.333333;0.335714;0.338095;0.340476;0.342857;0.345238;0.347619;0.35;0.385;0.387143;0.389286;0.391429;0.393571;0.395714;0.397857;0.4;1" calcMode="discrete" dur="36.0s" repeatCount="indefinite"/></rect></clipPath>
<clipPath id="t5"><rect x="32" y="0" width="0" height="25"><animate attributeName="width" values="0;0;12;24;36;48;60;72;84;84;72;60;48;36;24;12;0;0" keyTimes="0;0.416667;0.419048;0.421429;0.42381;0.42619;0.428571;0.430952;0.433333;0.468333;0.470476;0.472619;0.474762;0.476905;0.479048;0.48119;0.483333;1" calcMode="discrete" dur="36.0s" repeatCount="indefinite"/></rect></clipPath>
<clipPath id="t6"><rect x="32" y="0" width="0" height="25"><animate attributeName="width" values="0;0;12;24;36;48;60;60;48;36;24;12;0;0" keyTimes="0;0.5;0.503333;0.506667;0.51;0.513333;0.516667;0.551667;0.554667;0.557667;0.560667;0.563667;0.566667;1" calcMode="discrete" dur="36.0s" repeatCount="indefinite"/></rect></clipPath>
<clipPath id="t7"><rect x="32" y="0" width="0" height="25"><animate attributeName="width" values="0;0;12;24;36;48;60;72;84;96;108;120;132;144;156;168;180;192;192;180;168;156;144;132;120;108;96;84;72;60;48;36;24;12;0;0" keyTimes="0;0.583333;0.584375;0.585417;0.586458;0.5875;0.588542;0.589583;0.590625;0.591667;0.592708;0.59375;0.594792;0.595833;0.596875;0.597917;0.598958;0.6;0.635;0.635938;0.636875;0.637813;0.63875;0.639688;0.640625;0.641563;0.6425;0.643437;0.644375;0.645313;0.64625;0.647188;0.648125;0.649062;0.65;1" calcMode="discrete" dur="36.0s" repeatCount="indefinite"/></rect></clipPath>
<clipPath id="t8"><rect x="32" y="0" width="0" height="25"><animate attributeName="width" values="0;0;12;24;36;48;60;72;84;96;108;108;96;84;72;60;48;36;24;12;0;0" keyTimes="0;0.666667;0.668519;0.67037;0.672222;0.674074;0.675926;0.677778;0.67963;0.681481;0.683333;0.718333;0.72;0.721667;0.723333;0.725;0.726667;0.728333;0.73;0.731667;0.733333;1" calcMode="discrete" dur="36.0s" repeatCount="indefinite"/></rect></clipPath>
<clipPath id="t9"><rect x="32" y="0" width="0" height="25"><animate attributeName="width" values="0;0;12;24;36;48;60;72;72;60;48;36;24;12;0;0" keyTimes="0;0.75;0.752778;0.755556;0.758333;0.761111;0.763889;0.766667;0.801667;0.804167;0.806667;0.809167;0.811667;0.814167;0.816667;1" calcMode="discrete" dur="36.0s" repeatCount="indefinite"/></rect></clipPath>
<clipPath id="t10"><rect x="32" y="0" width="0" height="25"><animate attributeName="width" values="0;0;12;24;36;48;60;72;84;96;108;120;120;108;96;84;72;60;48;36;24;12;0;0" keyTimes="0;0.833333;0.835;0.836667;0.838333;0.84;0.841667;0.843333;0.845;0.846667;0.848333;0.85;0.885;0.8865;0.888;0.8895;0.891;0.8925;0.894;0.8955;0.897;0.8985;0.9;1" calcMode="discrete" dur="36.0s" repeatCount="indefinite"/></rect></clipPath>
<clipPath id="t11"><rect x="32" y="0" width="0" height="25"><animate attributeName="width" values="0;0;12;24;36;48;60;72;84;84;72;60;48;36;24;12;0;0" keyTimes="0;0.916667;0.919048;0.921429;0.92381;0.92619;0.928571;0.930952;0.933333;0.968333;0.970476;0.972619;0.974762;0.976905;0.979048;0.98119;0.983333;1" calcMode="discrete" dur="36.0s" repeatCount="indefinite"/></rect></clipPath>
</defs>
<g clip-path="url(#ewin)"><g>
<use href="#em0" x="2.0" y="2.0" width="22" height="22"/>
<use href="#em1" x="2.0" y="28.0" width="22" height="22"/>
<use href="#em2" x="2.0" y="54.0" width="22" height="22"/>
<use href="#em3" x="2.0" y="80.0" width="22" height="22"/>
<use href="#em4" x="2.0" y="106.0" width="22" height="22"/>
<use href="#em5" x="2.0" y="132.0" width="22" height="22"/>
<use href="#em6" x="2.0" y="158.0" width="22" height="22"/>
<use href="#em7" x="2.0" y="184.0" width="22" height="22"/>
<use href="#em8" x="2.0" y="210.0" width="22" height="22"/>
<use href="#em9" x="2.0" y="236.0" width="22" height="22"/>
<use href="#em10" x="2.0" y="262.0" width="22" height="22"/>
<use href="#em11" x="2.0" y="288.0" width="22" height="22"/>
<use href="#em0" x="2.0" y="314.0" width="22" height="22"/>
<animateTransform attributeName="transform" type="translate" values="0 0.0;0 0;0 -26;0 -26;0 -52;0 -52;0 -78;0 -78;0 -104;0 -104;0 -130;0 -130;0 -156;0 -156;0 -182;0 -182;0 -208;0 -208;0 -234;0 -234;0 -260;0 -260;0 -286;0 -286;0 -312;0 -312" keyTimes="0;0.0666667;0.0791667;0.15;0.1625;0.233333;0.245833;0.316667;0.329167;0.4;0.4125;0.483333;0.495833;0.566667;0.579167;0.65;0.6625;0.733333;0.745833;0.816667;0.829167;0.9;0.9125;0.983333;0.995833;1" keySplines="0.3 0 0.2 1;0.3 0 0.2 1;0.3 0 0.2 1;0.3 0 0.2 1;0.3 0 0.2 1;0.3 0 0.2 1;0.3 0 0.2 1;0.3 0 0.2 1;0.3 0 0.2 1;0.3 0 0.2 1;0.3 0 0.2 1;0.3 0 0.2 1;0.3 0 0.2 1;0.3 0 0.2 1;0.3 0 0.2 1;0.3 0 0.2 1;0.3 0 0.2 1;0.3 0 0.2 1;0.3 0 0.2 1;0.3 0 0.2 1;0.3 0 0.2 1;0.3 0 0.2 1;0.3 0 0.2 1;0.3 0 0.2 1;0.3 0 0.2 1" calcMode="spline" dur="36.0s" repeatCount="indefinite"/>
</g></g>
<text x="32" y="20" clip-path="url(#t0)" font-family="JetBrains Mono, Consolas, Courier New, monospace" font-size="20" font-weight="600" fill="#f38ba8">Gaming</text>
<g opacity="0"><rect x="33" y="6" width="2.2" height="16" rx="1" fill="#f38ba8"><animate attributeName="opacity" values="1;1;0;0" keyTimes="0;0.5;0.5;1" dur="0.9s" repeatCount="indefinite"/></rect><animateTransform attributeName="transform" type="translate" values="0.0 0;0.0 0;12.0 0;24.0 0;36.0 0;48.0 0;60.0 0;72.0 0;72.0 0;60.0 0;48.0 0;36.0 0;24.0 0;12.0 0;0.0 0;0.0 0" keyTimes="0;0;0.00277778;0.00555556;0.00833333;0.0111111;0.0138889;0.0166667;0.0516667;0.0541667;0.0566667;0.0591667;0.0616667;0.0641667;0.0666667;1" calcMode="discrete" dur="36.0s" repeatCount="indefinite"/><animate attributeName="opacity" values="1;1;0;0" keyTimes="0;0.0666667;0.0666667;1" calcMode="discrete" dur="36.0s" repeatCount="indefinite"/></g>
<text x="32" y="20" clip-path="url(#t1)" font-family="JetBrains Mono, Consolas, Courier New, monospace" font-size="20" font-weight="600" fill="#94e2d5">Sports</text>
<g opacity="0"><rect x="33" y="6" width="2.2" height="16" rx="1" fill="#94e2d5"><animate attributeName="opacity" values="1;1;0;0" keyTimes="0;0.5;0.5;1" dur="0.9s" repeatCount="indefinite"/></rect><animateTransform attributeName="transform" type="translate" values="0.0 0;0.0 0;12.0 0;24.0 0;36.0 0;48.0 0;60.0 0;72.0 0;72.0 0;60.0 0;48.0 0;36.0 0;24.0 0;12.0 0;0.0 0;0.0 0" keyTimes="0;0.0833333;0.0861111;0.0888889;0.0916667;0.0944444;0.0972222;0.1;0.135;0.1375;0.14;0.1425;0.145;0.1475;0.15;1" calcMode="discrete" dur="36.0s" repeatCount="indefinite"/><animate attributeName="opacity" values="0;0;1;1;0;0" keyTimes="0;0.0833333;0.0833333;0.15;0.15;1" calcMode="discrete" dur="36.0s" repeatCount="indefinite"/></g>
<text x="32" y="20" clip-path="url(#t2)" font-family="JetBrains Mono, Consolas, Courier New, monospace" font-size="20" font-weight="600" fill="#fab387">Drawing</text>
<g opacity="0"><rect x="33" y="6" width="2.2" height="16" rx="1" fill="#fab387"><animate attributeName="opacity" values="1;1;0;0" keyTimes="0;0.5;0.5;1" dur="0.9s" repeatCount="indefinite"/></rect><animateTransform attributeName="transform" type="translate" values="0.0 0;0.0 0;12.0 0;24.0 0;36.0 0;48.0 0;60.0 0;72.0 0;84.0 0;84.0 0;72.0 0;60.0 0;48.0 0;36.0 0;24.0 0;12.0 0;0.0 0;0.0 0" keyTimes="0;0.166667;0.169048;0.171429;0.17381;0.17619;0.178571;0.180952;0.183333;0.218333;0.220476;0.222619;0.224762;0.226905;0.229048;0.23119;0.233333;1" calcMode="discrete" dur="36.0s" repeatCount="indefinite"/><animate attributeName="opacity" values="0;0;1;1;0;0" keyTimes="0;0.166667;0.166667;0.233333;0.233333;1" calcMode="discrete" dur="36.0s" repeatCount="indefinite"/></g>
<text x="32" y="20" clip-path="url(#t3)" font-family="JetBrains Mono, Consolas, Courier New, monospace" font-size="20" font-weight="600" fill="#cba6f7">Music</text>
<g opacity="0"><rect x="33" y="6" width="2.2" height="16" rx="1" fill="#cba6f7"><animate attributeName="opacity" values="1;1;0;0" keyTimes="0;0.5;0.5;1" dur="0.9s" repeatCount="indefinite"/></rect><animateTransform attributeName="transform" type="translate" values="0.0 0;0.0 0;12.0 0;24.0 0;36.0 0;48.0 0;60.0 0;60.0 0;48.0 0;36.0 0;24.0 0;12.0 0;0.0 0;0.0 0" keyTimes="0;0.25;0.253333;0.256667;0.26;0.263333;0.266667;0.301667;0.304667;0.307667;0.310667;0.313667;0.316667;1" calcMode="discrete" dur="36.0s" repeatCount="indefinite"/><animate attributeName="opacity" values="0;0;1;1;0;0" keyTimes="0;0.25;0.25;0.316667;0.316667;1" calcMode="discrete" dur="36.0s" repeatCount="indefinite"/></g>
<text x="32" y="20" clip-path="url(#t4)" font-family="JetBrains Mono, Consolas, Courier New, monospace" font-size="20" font-weight="600" fill="#89dceb">Reading</text>
<g opacity="0"><rect x="33" y="6" width="2.2" height="16" rx="1" fill="#89dceb"><animate attributeName="opacity" values="1;1;0;0" keyTimes="0;0.5;0.5;1" dur="0.9s" repeatCount="indefinite"/></rect><animateTransform attributeName="transform" type="translate" values="0.0 0;0.0 0;12.0 0;24.0 0;36.0 0;48.0 0;60.0 0;72.0 0;84.0 0;84.0 0;72.0 0;60.0 0;48.0 0;36.0 0;24.0 0;12.0 0;0.0 0;0.0 0" keyTimes="0;0.333333;0.335714;0.338095;0.340476;0.342857;0.345238;0.347619;0.35;0.385;0.387143;0.389286;0.391429;0.393571;0.395714;0.397857;0.4;1" calcMode="discrete" dur="36.0s" repeatCount="indefinite"/><animate attributeName="opacity" values="0;0;1;1;0;0" keyTimes="0;0.333333;0.333333;0.4;0.4;1" calcMode="discrete" dur="36.0s" repeatCount="indefinite"/></g>
<text x="32" y="20" clip-path="url(#t5)" font-family="JetBrains Mono, Consolas, Courier New, monospace" font-size="20" font-weight="600" fill="#a6e3a1">Writing</text>
<g opacity="0"><rect x="33" y="6" width="2.2" height="16" rx="1" fill="#a6e3a1"><animate attributeName="opacity" values="1;1;0;0" keyTimes="0;0.5;0.5;1" dur="0.9s" repeatCount="indefinite"/></rect><animateTransform attributeName="transform" type="translate" values="0.0 0;0.0 0;12.0 0;24.0 0;36.0 0;48.0 0;60.0 0;72.0 0;84.0 0;84.0 0;72.0 0;60.0 0;48.0 0;36.0 0;24.0 0;12.0 0;0.0 0;0.0 0" keyTimes="0;0.416667;0.419048;0.421429;0.42381;0.42619;0.428571;0.430952;0.433333;0.468333;0.470476;0.472619;0.474762;0.476905;0.479048;0.48119;0.483333;1" calcMode="discrete" dur="36.0s" repeatCount="indefinite"/><animate attributeName="opacity" values="0;0;1;1;0;0" keyTimes="0;0.416667;0.416667;0.483333;0.483333;1" calcMode="discrete" dur="36.0s" repeatCount="indefinite"/></g>
<text x="32" y="20" clip-path="url(#t6)" font-family="JetBrains Mono, Consolas, Courier New, monospace" font-size="20" font-weight="600" fill="#f5c2e7">Anime</text>
<g opacity="0"><rect x="33" y="6" width="2.2" height="16" rx="1" fill="#f5c2e7"><animate attributeName="opacity" values="1;1;0;0" keyTimes="0;0.5;0.5;1" dur="0.9s" repeatCount="indefinite"/></rect><animateTransform attributeName="transform" type="translate" values="0.0 0;0.0 0;12.0 0;24.0 0;36.0 0;48.0 0;60.0 0;60.0 0;48.0 0;36.0 0;24.0 0;12.0 0;0.0 0;0.0 0" keyTimes="0;0.5;0.503333;0.506667;0.51;0.513333;0.516667;0.551667;0.554667;0.557667;0.560667;0.563667;0.566667;1" calcMode="discrete" dur="36.0s" repeatCount="indefinite"/><animate attributeName="opacity" values="0;0;1;1;0;0" keyTimes="0;0.5;0.5;0.566667;0.566667;1" calcMode="discrete" dur="36.0s" repeatCount="indefinite"/></g>
<text x="32" y="20" clip-path="url(#t7)" font-family="JetBrains Mono, Consolas, Courier New, monospace" font-size="20" font-weight="600" fill="#fab387">Content Creation</text>
<g opacity="0"><rect x="33" y="6" width="2.2" height="16" rx="1" fill="#fab387"><animate attributeName="opacity" values="1;1;0;0" keyTimes="0;0.5;0.5;1" dur="0.9s" repeatCount="indefinite"/></rect><animateTransform attributeName="transform" type="translate" values="0.0 0;0.0 0;12.0 0;24.0 0;36.0 0;48.0 0;60.0 0;72.0 0;84.0 0;96.0 0;108.0 0;120.0 0;132.0 0;144.0 0;156.0 0;168.0 0;180.0 0;192.0 0;192.0 0;180.0 0;168.0 0;156.0 0;144.0 0;132.0 0;120.0 0;108.0 0;96.0 0;84.0 0;72.0 0;60.0 0;48.0 0;36.0 0;24.0 0;12.0 0;0.0 0;0.0 0" keyTimes="0;0.583333;0.584375;0.585417;0.586458;0.5875;0.588542;0.589583;0.590625;0.591667;0.592708;0.59375;0.594792;0.595833;0.596875;0.597917;0.598958;0.6;0.635;0.635938;0.636875;0.637813;0.63875;0.639688;0.640625;0.641563;0.6425;0.643437;0.644375;0.645313;0.64625;0.647188;0.648125;0.649062;0.65;1" calcMode="discrete" dur="36.0s" repeatCount="indefinite"/><animate attributeName="opacity" values="0;0;1;1;0;0" keyTimes="0;0.583333;0.583333;0.65;0.65;1" calcMode="discrete" dur="36.0s" repeatCount="indefinite"/></g>
<text x="32" y="20" clip-path="url(#t8)" font-family="JetBrains Mono, Consolas, Courier New, monospace" font-size="20" font-weight="600" fill="#74c7ec">Investing</text>
<g opacity="0"><rect x="33" y="6" width="2.2" height="16" rx="1" fill="#74c7ec"><animate attributeName="opacity" values="1;1;0;0" keyTimes="0;0.5;0.5;1" dur="0.9s" repeatCount="indefinite"/></rect><animateTransform attributeName="transform" type="translate" values="0.0 0;0.0 0;12.0 0;24.0 0;36.0 0;48.0 0;60.0 0;72.0 0;84.0 0;96.0 0;108.0 0;108.0 0;96.0 0;84.0 0;72.0 0;60.0 0;48.0 0;36.0 0;24.0 0;12.0 0;0.0 0;0.0 0" keyTimes="0;0.666667;0.668519;0.67037;0.672222;0.674074;0.675926;0.677778;0.67963;0.681481;0.683333;0.718333;0.72;0.721667;0.723333;0.725;0.726667;0.728333;0.73;0.731667;0.733333;1" calcMode="discrete" dur="36.0s" repeatCount="indefinite"/><animate attributeName="opacity" values="0;0;1;1;0;0" keyTimes="0;0.666667;0.666667;0.733333;0.733333;1" calcMode="discrete" dur="36.0s" repeatCount="indefinite"/></g>
<text x="32" y="20" clip-path="url(#t9)" font-family="JetBrains Mono, Consolas, Courier New, monospace" font-size="20" font-weight="600" fill="#89b4fa">Coding</text>
<g opacity="0"><rect x="33" y="6" width="2.2" height="16" rx="1" fill="#89b4fa"><animate attributeName="opacity" values="1;1;0;0" keyTimes="0;0.5;0.5;1" dur="0.9s" repeatCount="indefinite"/></rect><animateTransform attributeName="transform" type="translate" values="0.0 0;0.0 0;12.0 0;24.0 0;36.0 0;48.0 0;60.0 0;72.0 0;72.0 0;60.0 0;48.0 0;36.0 0;24.0 0;12.0 0;0.0 0;0.0 0" keyTimes="0;0.75;0.752778;0.755556;0.758333;0.761111;0.763889;0.766667;0.801667;0.804167;0.806667;0.809167;0.811667;0.814167;0.816667;1" calcMode="discrete" dur="36.0s" repeatCount="indefinite"/><animate attributeName="opacity" values="0;0;1;1;0;0" keyTimes="0;0.75;0.75;0.816667;0.816667;1" calcMode="discrete" dur="36.0s" repeatCount="indefinite"/></g>
<text x="32" y="20" clip-path="url(#t10)" font-family="JetBrains Mono, Consolas, Courier New, monospace" font-size="20" font-weight="600" fill="#a6e3a1">Travelling</text>
<g opacity="0"><rect x="33" y="6" width="2.2" height="16" rx="1" fill="#a6e3a1"><animate attributeName="opacity" values="1;1;0;0" keyTimes="0;0.5;0.5;1" dur="0.9s" repeatCount="indefinite"/></rect><animateTransform attributeName="transform" type="translate" values="0.0 0;0.0 0;12.0 0;24.0 0;36.0 0;48.0 0;60.0 0;72.0 0;84.0 0;96.0 0;108.0 0;120.0 0;120.0 0;108.0 0;96.0 0;84.0 0;72.0 0;60.0 0;48.0 0;36.0 0;24.0 0;12.0 0;0.0 0;0.0 0" keyTimes="0;0.833333;0.835;0.836667;0.838333;0.84;0.841667;0.843333;0.845;0.846667;0.848333;0.85;0.885;0.8865;0.888;0.8895;0.891;0.8925;0.894;0.8955;0.897;0.8985;0.9;1" calcMode="discrete" dur="36.0s" repeatCount="indefinite"/><animate attributeName="opacity" values="0;0;1;1;0;0" keyTimes="0;0.833333;0.833333;0.9;0.9;1" calcMode="discrete" dur="36.0s" repeatCount="indefinite"/></g>
<text x="32" y="20" clip-path="url(#t11)" font-family="JetBrains Mono, Consolas, Courier New, monospace" font-size="20" font-weight="600" fill="#f9e2af">Driving</text>
<g opacity="0"><rect x="33" y="6" width="2.2" height="16" rx="1" fill="#f9e2af"><animate attributeName="opacity" values="1;1;0;0" keyTimes="0;0.5;0.5;1" dur="0.9s" repeatCount="indefinite"/></rect><animateTransform attributeName="transform" type="translate" values="0.0 0;0.0 0;12.0 0;24.0 0;36.0 0;48.0 0;60.0 0;72.0 0;84.0 0;84.0 0;72.0 0;60.0 0;48.0 0;36.0 0;24.0 0;12.0 0;0.0 0;0.0 0" keyTimes="0;0.916667;0.919048;0.921429;0.92381;0.92619;0.928571;0.930952;0.933333;0.968333;0.970476;0.972619;0.974762;0.976905;0.979048;0.98119;0.983333;1" calcMode="discrete" dur="36.0s" repeatCount="indefinite"/><animate attributeName="opacity" values="0;0;1;1;0;0" keyTimes="0;0.916667;0.916667;0.983333;0.983333;1" calcMode="discrete" dur="36.0s" repeatCount="indefinite"/></g>
</svg>